# xmcd CD database file
#
# Track frame offsets:
#	182
#	28922
#	67542
#	90992
#	114032
#	133795
#	159282
#	164682
#	193905
#	215277
#	221582
#	255892
#	266337
#
# Disc length: 4059 seconds
#
# Revision: 7
# Processed by: cddbd v1.5.1PL2 Copyright (c) Steve Scherf et al.
# Submitted via: CDex 1.51
#
DISCID=a60fd90d
DTITLE=Lammas - Lammas
DYEAR=1990
DGENRE=Jazz
TTITLE0=Stevie's Wedding
TTITLE1=North Shore
TTITLE2=Drowsie Maggie
TTITLE3=Black Hair
TTITLE4=Too Late
TTITLE5=Prayers
TTITLE6=Jenny Picking Cockles
TTITLE7=Ronan's Daughter
TTITLE8=Steeple Children
TTITLE9=Ca' The Yows
TTITLE10=Keep Singing
TTITLE11=Skitters
TTITLE12=The Harvest Sun
EXTD=YEAR: 1990
EXTT0=
EXTT1=
EXTT2=
EXTT3=
EXTT4=
EXTT5=
EXTT6=
EXTT7=
EXTT8=
EXTT9=
EXTT10=
EXTT11=
EXTT12=
PLAYORDER=
